<?xml version="1.0" encoding="utf-8"?>
<!-- Generator: Adobe Illustrator 24.3.0, SVG Export Plug-In . SVG Version: 6.00 Build 0)  -->
<svg version="1.1" id="Слой_1" xmlns="http://www.w3.org/2000/svg" xmlns:xlink="http://www.w3.org/1999/xlink" x="0px" y="0px"
	 viewBox="0 0 595.28 841.89" style="enable-background:new 0 0 595.28 841.89;" xml:space="preserve">
<style type="text/css">
	.st0{fill:#FFFFFF;}
</style>
<g>
	<path class="st0" d="M255.66,412.01L255.66,412.01c4.93-4.93,12.93-4.93,17.86,0l66.09,66.09c4.93,4.93,4.93,12.93,0,17.86v0
		c-4.93,4.93-12.93,4.93-17.86,0l-66.09-66.09C250.73,424.94,250.73,416.95,255.66,412.01z"/>
	<path class="st0" d="M255.66,429.88L255.66,429.88c-4.93-4.93-4.93-12.93,0-17.86l66.09-66.09c4.93-4.93,12.93-4.93,17.86,0l0,0
		c4.93,4.93,4.93,12.93,0,17.86l-66.09,66.09C268.59,434.81,260.59,434.81,255.66,429.88z"/>
</g>
</svg>
