<?xml version="1.0" encoding="utf-8"?>
<!-- Generator: Adobe Illustrator 24.3.0, SVG Export Plug-In . SVG Version: 6.00 Build 0)  -->
<svg version="1.1" id="Слой_1" xmlns="http://www.w3.org/2000/svg" xmlns:xlink="http://www.w3.org/1999/xlink" x="0px" y="0px"
	 viewBox="0 0 1920 1080" style="enable-background:new 0 0 1920 1080;" xml:space="preserve">
<style type="text/css">
	.st0{fill:#FFFFFF;}
</style>
<g>
	<path class="st0" d="M893.12,642.38L893.12,642.38c-11.33-11.33-11.33-29.69,0-41.01l164.76-164.76
		c11.33-11.33,29.69-11.33,41.01,0v0c11.33,11.33,11.33,29.69,0,41.01L934.13,642.38C922.8,653.71,904.44,653.71,893.12,642.38z"/>
	<path class="st0" d="M933.57,642.57L933.57,642.57c-11.33,11.33-29.69,11.33-41.01,0l-72.12-72.12
		c-11.33-11.33-11.33-29.69,0-41.01l0,0c11.33-11.33,29.69-11.33,41.01,0l72.12,72.12C944.89,612.88,944.89,631.24,933.57,642.57z"
		/>
</g>
</svg>
