<?xml version="1.0" encoding="utf-8"?>
<!-- Generator: Adobe Illustrator 24.3.0, SVG Export Plug-In . SVG Version: 6.00 Build 0)  -->
<svg version="1.1" id="Слой_1" xmlns="http://www.w3.org/2000/svg" xmlns:xlink="http://www.w3.org/1999/xlink" x="0px" y="0px"
	 viewBox="0 0 1920 1080" style="enable-background:new 0 0 1920 1080;" xml:space="preserve">
<style type="text/css">
	.st0{fill:#00FF00;}
	.st1{fill:#FFFFFF;}
	.st2{fill:#FF0000;}
</style>
<g>
	<path class="st0" d="M1151.87,815H769.13c-45.91,0-83.13-37.22-83.13-83.13V349.13c0-45.91,37.22-83.13,83.13-83.13h382.74
		c45.91,0,83.13,37.22,83.13,83.13v382.74C1235,777.78,1197.78,815,1151.87,815z"/>
</g>
<g>
	<path class="st1" d="M894.12,643.38L894.12,643.38c-11.33-11.33-11.33-29.69,0-41.01l164.76-164.76
		c11.33-11.33,29.69-11.33,41.01,0v0c11.33,11.33,11.33,29.69,0,41.01L935.13,643.38C923.8,654.71,905.44,654.71,894.12,643.38z"/>
	<path class="st1" d="M934.57,643.57L934.57,643.57c-11.33,11.33-29.69,11.33-41.01,0l-72.12-72.12
		c-11.33-11.33-11.33-29.69,0-41.01l0,0c11.33-11.33,29.69-11.33,41.01,0l72.12,72.12C945.89,613.88,945.89,632.24,934.57,643.57z"
		/>
</g>
<g>
	<g>
		<path class="st2" d="M-797.13,815h-382.74c-45.91,0-83.13-37.22-83.13-83.13V349.13c0-45.91,37.22-83.13,83.13-83.13h382.74
			c45.91,0,83.13,37.22,83.13,83.13v382.74C-714,777.78-751.22,815-797.13,815z"/>
	</g>
	<path class="st1" d="M-1091.38,643.38L-1091.38,643.38c-11.33-11.33-11.33-29.69,0-41.01l164.76-164.76
		c11.33-11.33,29.69-11.33,41.01,0v0c11.33,11.33,11.33,29.69,0,41.01l-164.76,164.76C-1061.7,654.71-1080.06,654.71-1091.38,643.38
		z"/>
	<path class="st1" d="M-1090.73,437.9L-1090.73,437.9c11.33-11.33,29.69-11.33,41.01,0l164.76,164.76
		c11.33,11.33,11.33,29.69,0,41.01l0,0c-11.33,11.33-29.69,11.33-41.01,0l-164.76-164.76
		C-1102.05,467.58-1102.05,449.22-1090.73,437.9z"/>
</g>
</svg>
