<?xml version="1.0" encoding="utf-8"?>
<!-- Generator: Adobe Illustrator 24.3.0, SVG Export Plug-In . SVG Version: 6.00 Build 0)  -->
<svg version="1.1" id="Слой_1" xmlns="http://www.w3.org/2000/svg" xmlns:xlink="http://www.w3.org/1999/xlink" x="0px" y="0px"
	 viewBox="0 0 1920 1080" style="enable-background:new 0 0 1920 1080;" xml:space="preserve">
<style type="text/css">
	.st0{fill:#00FF00;}
	.st1{fill:#FFFFFF;}
	.st2{fill:#FF0000;}
</style>
<g>
	<path class="st0" d="M-559.13-300h-382.74c-45.91,0-83.13-37.22-83.13-83.13v-382.74c0-45.91,37.22-83.13,83.13-83.13h382.74
		c45.91,0,83.13,37.22,83.13,83.13v382.74C-476-337.22-513.22-300-559.13-300z"/>
</g>
<g>
	<path class="st1" d="M-816.88-471.62L-816.88-471.62c-11.33-11.33-11.33-29.69,0-41.01l164.76-164.76
		c11.33-11.33,29.69-11.33,41.01,0l0,0c11.33,11.33,11.33,29.69,0,41.01l-164.76,164.76C-787.2-460.29-805.56-460.29-816.88-471.62z
		"/>
	<path class="st1" d="M-776.43-471.43L-776.43-471.43c-11.33,11.33-29.69,11.33-41.01,0l-72.12-72.12
		c-11.33-11.33-11.33-29.69,0-41.01l0,0c11.33-11.33,29.69-11.33,41.01,0l72.12,72.12C-765.11-501.12-765.11-482.76-776.43-471.43z"
		/>
</g>
<g>
	<g>
		<path class="st2" d="M1150.87,815H768.13c-45.91,0-83.13-37.22-83.13-83.13V349.13c0-45.91,37.22-83.13,83.13-83.13h382.74
			c45.91,0,83.13,37.22,83.13,83.13v382.74C1234,777.78,1196.78,815,1150.87,815z"/>
	</g>
	<path class="st1" d="M856.62,643.38L856.62,643.38c-11.33-11.33-11.33-29.69,0-41.01l164.76-164.76
		c11.33-11.33,29.69-11.33,41.01,0v0c11.33,11.33,11.33,29.69,0,41.01L897.63,643.38C886.3,654.71,867.94,654.71,856.62,643.38z"/>
	<path class="st1" d="M857.27,437.9L857.27,437.9c11.33-11.33,29.69-11.33,41.01,0l164.76,164.76c11.33,11.33,11.33,29.69,0,41.01v0
		c-11.33,11.33-29.69,11.33-41.01,0L857.27,478.91C845.95,467.58,845.95,449.22,857.27,437.9z"/>
</g>
</svg>
