<?xml version="1.0" encoding="utf-8"?>
<!-- Generator: Adobe Illustrator 24.3.0, SVG Export Plug-In . SVG Version: 6.00 Build 0)  -->
<svg version="1.1" id="Слой_1" xmlns="http://www.w3.org/2000/svg" xmlns:xlink="http://www.w3.org/1999/xlink" x="0px" y="0px"
	 viewBox="0 0 1920 1080" style="enable-background:new 0 0 1920 1080;" xml:space="preserve">
<style type="text/css">
	.st0{fill:#FFFFFF;}
</style>
<g>
	<path class="st0" d="M857,642.9L857,642.9c-11.3-11.3-11.3-29.7,0-41l164.8-164.8c11.3-11.3,29.7-11.3,41,0l0,0
		c11.3,11.3,11.3,29.7,0,41L898.1,642.9C886.7,654.2,868.4,654.2,857,642.9z"/>
	<g>
		<path class="st0" d="M855.2,439.7L855.2,439.7c-11.1,11.5-10.8,29.9,0.8,41l167.8,161.7c11.5,11.1,29.9,10.8,41-0.8l0,0
			c11.1-11.5,10.8-29.9-0.8-41L896.2,438.9C884.7,427.8,866.3,428.1,855.2,439.7z"/>
	</g>
</g>
</svg>
