<?xml version="1.0" encoding="utf-8"?>
<!-- Generator: Adobe Illustrator 24.3.0, SVG Export Plug-In . SVG Version: 6.00 Build 0)  -->
<svg version="1.1" id="Слой_1" xmlns="http://www.w3.org/2000/svg" xmlns:xlink="http://www.w3.org/1999/xlink" x="0px" y="0px"
	 viewBox="0 0 1920 1080" style="enable-background:new 0 0 1920 1080;" xml:space="preserve">
<style type="text/css">
	.st0{fill:#FF0000;}
	.st1{fill:#FFFFFF;}
</style>
<g>
	<path class="st0" d="M1161.67,868H759.33C689.56,868,633,811.44,633,741.67V339.33C633,269.56,689.56,213,759.33,213h402.33
		c69.77,0,126.33,56.56,126.33,126.33v402.33C1288,811.44,1231.44,868,1161.67,868z"/>
</g>
<path class="st1" d="M812.71,688.79L812.71,688.79c-13.08-13.08-13.08-34.29,0-47.38l248.19-248.19c13.08-13.08,34.29-13.08,47.38,0
	l0,0c13.08,13.08,13.08,34.29,0,47.38L860.09,688.79C847.01,701.87,825.8,701.87,812.71,688.79z"/>
<path class="st1" d="M1108.45,688.45L1108.45,688.45c13.08-13.08,13.08-34.29,0-47.38L860.26,392.88
	c-13.08-13.08-34.29-13.08-47.38,0v0c-13.08,13.08-13.08,34.29,0,47.38l248.19,248.19C1074.16,701.53,1095.37,701.53,1108.45,688.45
	z"/>
</svg>
